PathFileType	4	(X/Y/Z)	E:/New_biomech_experiments/MICROGRAVITY MOCAP/Session 2024-06-22/Neeraj_StickPose_22_06_24.trc	
DataRate	CameraRate	NumFrames	NumMarkers	Units	OrigDataRate	OrigDataStartFrame	OrigNumFrames	
120.00	120.00	18	19	m	120.00	982	1570	
Frame#	Time	 RSHO			 RBAK			 LBHD			 RUPA			 PRSHO			 RWRA			 RELB			 RFRM			 CLAV			 STRN			 ARSHO			 RFHD			 LFHD			 DIA			 C7			 RBHD			 MRELB			 RWRB			 T10			
		X1	Y1	Z1	X2	Y2	Z2	X3	Y3	Z3	X4	Y4	Z4	X5	Y5	Z5	X6	Y6	Z6	X7	Y7	Z7	X8	Y8	Z8	X9	Y9	Z9	X10	Y10	Z10	X11	Y11	Z11	X12	Y12	Z12	X13	Y13	Z13	X14	Y14	Z14	X15	Y15	Z15	X16	Y16	Z16	X17	Y17	Z17	X18	Y18	Z18	X19	Y19	Z19	

982	8.175	-0.00709	1.51835	0.18423	-0.11521	1.36417	0.04416	-0.04038	1.71685	-0.08551	0.00886	1.30496	0.23105	-0.09407	1.46576	0.12860	0.04932	0.88556	0.21052	0.00429	1.16281	0.23916	0.01255	1.02746	0.25147	0.10702	1.48524	-0.03076	0.14877	1.32360	-0.02408	0.08889	1.46140	0.13607	0.06450	1.81442	0.05421	0.07625	1.82828	-0.04802	0.08722	1.16605	0.13445	-0.08582	1.53028	-0.02373	-0.06069	1.71774	0.01773	-0.05746	1.14534	0.13632	-0.04527	0.86535	0.23698	-0.10681	1.33537	-0.02646 
983	8.183	-0.00715	1.51835	0.18420	-0.11524	1.36416	0.04413	-0.04041	1.71685	-0.08551	0.00883	1.30496	0.23103	-0.09412	1.46575	0.12858	0.04929	0.88556	0.21046	0.00421	1.16280	0.23910	0.01249	1.02746	0.25141	0.10699	1.48525	-0.03077	0.14875	1.32362	-0.02410	0.08885	1.46141	0.13606	0.06446	1.81441	0.05422	0.07620	1.82827	-0.04802	0.08720	1.16606	0.13442	-0.08586	1.53029	-0.02374	-0.06072	1.71774	0.01773	-0.05748	1.14533	0.13628	-0.04531	0.86534	0.23691	-0.10680	1.33534	-0.02650 
984	8.192	-0.00719	1.51834	0.18418	-0.11528	1.36415	0.04410	-0.04044	1.71686	-0.08551	0.00879	1.30495	0.23101	-0.09416	1.46574	0.12856	0.04926	0.88555	0.21040	0.00414	1.16279	0.23904	0.01245	1.02746	0.25137	0.10695	1.48526	-0.03078	0.14873	1.32364	-0.02412	0.08881	1.46142	0.13605	0.06442	1.81441	0.05423	0.07617	1.82828	-0.04800	0.08718	1.16607	0.13439	-0.08590	1.53029	-0.02375	-0.06076	1.71775	0.01773	-0.05752	1.14532	0.13624	-0.04535	0.86532	0.23684	-0.10680	1.33532	-0.02653 
985	8.200	-0.00724	1.51833	0.18416	-0.11532	1.36415	0.04407	-0.04048	1.71686	-0.08551	0.00876	1.30494	0.23100	-0.09420	1.46574	0.12854	0.04922	0.88554	0.21034	0.00406	1.16277	0.23900	0.01242	1.02746	0.25132	0.10692	1.48528	-0.03079	0.14871	1.32366	-0.02414	0.08877	1.46142	0.13605	0.06439	1.81440	0.05424	0.07614	1.82829	-0.04797	0.08715	1.16607	0.13437	-0.08593	1.53030	-0.02377	-0.06079	1.71774	0.01773	-0.05755	1.14531	0.13621	-0.04539	0.86531	0.23677	-0.10682	1.33531	-0.02656 
986	8.208	-0.00728	1.51832	0.18415	-0.11536	1.36415	0.04404	-0.04051	1.71687	-0.08550	0.00873	1.30493	0.23098	-0.09425	1.46573	0.12853	0.04918	0.88553	0.21027	0.00400	1.16274	0.23897	0.01238	1.02745	0.25128	0.10690	1.48529	-0.03079	0.14870	1.32367	-0.02417	0.08873	1.46142	0.13604	0.06435	1.81439	0.05426	0.07611	1.82831	-0.04794	0.08713	1.16607	0.13434	-0.08596	1.53030	-0.02378	-0.06083	1.71774	0.01773	-0.05759	1.14530	0.13617	-0.04544	0.86530	0.23670	-0.10685	1.33531	-0.02660 
987	8.217	-0.00731	1.51831	0.18415	-0.11540	1.36414	0.04401	-0.04054	1.71687	-0.08549	0.00871	1.30491	0.23097	-0.09429	1.46572	0.12851	0.04914	0.88552	0.21021	0.00394	1.16271	0.23895	0.01234	1.02743	0.25123	0.10687	1.48530	-0.03080	0.14868	1.32368	-0.02419	0.08870	1.46142	0.13604	0.06431	1.81439	0.05428	0.07608	1.82833	-0.04790	0.08710	1.16607	0.13431	-0.08600	1.53031	-0.02379	-0.06086	1.71773	0.01773	-0.05763	1.14529	0.13614	-0.04548	0.86528	0.23663	-0.10690	1.33532	-0.02663 
988	8.225	-0.00734	1.51829	0.18414	-0.11544	1.36414	0.04398	-0.04056	1.71688	-0.08548	0.00868	1.30490	0.23096	-0.09433	1.46572	0.12849	0.04909	0.88551	0.21015	0.00389	1.16268	0.23894	0.01229	1.02741	0.25118	0.10685	1.48530	-0.03081	0.14866	1.32369	-0.02421	0.08866	1.46141	0.13603	0.06428	1.81438	0.05431	0.07605	1.82834	-0.04786	0.08708	1.16607	0.13428	-0.08603	1.53032	-0.02380	-0.06089	1.71773	0.01774	-0.05767	1.14528	0.13610	-0.04553	0.86527	0.23657	-0.10696	1.33535	-0.02667 
989	8.233	-0.00738	1.51828	0.18413	-0.11548	1.36414	0.04396	-0.04059	1.71689	-0.08547	0.00866	1.30488	0.23095	-0.09436	1.46571	0.12848	0.04905	0.88549	0.21009	0.00386	1.16264	0.23894	0.01223	1.02739	0.25112	0.10683	1.48531	-0.03081	0.14865	1.32370	-0.02423	0.08863	1.46141	0.13603	0.06424	1.81436	0.05434	0.07602	1.82835	-0.04782	0.08704	1.16607	0.13425	-0.08605	1.53032	-0.02381	-0.06092	1.71772	0.01775	-0.05771	1.14527	0.13607	-0.04559	0.86525	0.23650	-0.10702	1.33538	-0.02670 
990	8.242	-0.00741	1.51826	0.18413	-0.11552	1.36414	0.04393	-0.04061	1.71689	-0.08545	0.00863	1.30486	0.23093	-0.09440	1.46570	0.12846	0.04899	0.88548	0.21003	0.00383	1.16261	0.23894	0.01215	1.02736	0.25105	0.10681	1.48532	-0.03081	0.14863	1.32371	-0.02425	0.08859	1.46140	0.13603	0.06421	1.81435	0.05438	0.07599	1.82836	-0.04779	0.08701	1.16607	0.13422	-0.08608	1.53033	-0.02382	-0.06094	1.71771	0.01777	-0.05775	1.14526	0.13604	-0.04564	0.86524	0.23644	-0.10711	1.33543	-0.02674 
991	8.250	-0.00743	1.51825	0.18413	-0.11556	1.36415	0.04391	-0.04063	1.71690	-0.08544	0.00861	1.30484	0.23092	-0.09444	1.46570	0.12845	0.04893	0.88546	0.20996	0.00381	1.16259	0.23893	0.01205	1.02734	0.25098	0.10679	1.48533	-0.03081	0.14861	1.32371	-0.02427	0.08856	1.46139	0.13603	0.06418	1.81434	0.05442	0.07597	1.82837	-0.04775	0.08697	1.16606	0.13419	-0.08611	1.53034	-0.02383	-0.06096	1.71771	0.01778	-0.05779	1.14525	0.13600	-0.04570	0.86522	0.23637	-0.10721	1.33549	-0.02677 
992	8.258	-0.00746	1.51823	0.18413	-0.11560	1.36415	0.04388	-0.04064	1.71691	-0.08543	0.00859	1.30482	0.23090	-0.09447	1.46569	0.12844	0.04887	0.88544	0.20990	0.00379	1.16256	0.23892	0.01193	1.02733	0.25090	0.10677	1.48534	-0.03081	0.14860	1.32372	-0.02429	0.08853	1.46138	0.13603	0.06415	1.81433	0.05446	0.07594	1.82837	-0.04772	0.08693	1.16605	0.13416	-0.08613	1.53035	-0.02383	-0.06098	1.71771	0.01779	-0.05783	1.14524	0.13597	-0.04577	0.86520	0.23631	-0.10733	1.33557	-0.02679 
993	8.267	-0.00749	1.51822	0.18413	-0.11564	1.36416	0.04386	-0.04065	1.71692	-0.08542	0.00856	1.30480	0.23089	-0.09450	1.46569	0.12843	0.04880	0.88543	0.20984	0.00373	1.16255	0.23889	0.01182	1.02731	0.25083	0.10675	1.48535	-0.03081	0.14858	1.32373	-0.02430	0.08850	1.46137	0.13603	0.06413	1.81432	0.05450	0.07591	1.82836	-0.04769	0.08689	1.16603	0.13412	-0.08616	1.53036	-0.02384	-0.06100	1.71770	0.01779	-0.05788	1.14524	0.13593	-0.04584	0.86519	0.23624	-0.10749	1.33568	-0.02682 
994	8.275	-0.00752	1.51821	0.18413	-0.11568	1.36417	0.04384	-0.04066	1.71693	-0.08541	0.00853	1.30479	0.23087	-0.09454	1.46569	0.12842	0.04873	0.88541	0.20978	0.00366	1.16253	0.23884	0.01173	1.02730	0.25076	0.10674	1.48536	-0.03081	0.14856	1.32373	-0.02431	0.08847	1.46137	0.13603	0.06411	1.81432	0.05453	0.07589	1.82834	-0.04767	0.08684	1.16601	0.13408	-0.08618	1.53037	-0.02384	-0.06102	1.71770	0.01780	-0.05792	1.14523	0.13590	-0.04591	0.86518	0.23618	-0.10770	1.33583	-0.02684 
995	8.283	-0.00755	1.51821	0.18413	-0.11572	1.36417	0.04382	-0.04067	1.71694	-0.08540	0.00850	1.30478	0.23086	-0.09457	1.46569	0.12842	0.04866	0.88540	0.20972	0.00357	1.16251	0.23878	0.01165	1.02728	0.25071	0.10673	1.48537	-0.03080	0.14855	1.32374	-0.02433	0.08844	1.46136	0.13603	0.06410	1.81431	0.05457	0.07588	1.82833	-0.04765	0.08679	1.16598	0.13403	-0.08620	1.53039	-0.02384	-0.06104	1.71770	0.01781	-0.05797	1.14523	0.13587	-0.04598	0.86516	0.23611	-0.10786	1.33594	-0.02686 
996	8.292	-0.00759	1.51821	0.18412	-0.11576	1.36418	0.04381	-0.04067	1.71696	-0.08539	0.00847	1.30476	0.23085	-0.09460	1.46570	0.12841	0.04859	0.88539	0.20965	0.00349	1.16250	0.23874	0.01158	1.02727	0.25066	0.10671	1.48538	-0.03080	0.14852	1.32374	-0.02434	0.08841	1.46135	0.13604	0.06408	1.81430	0.05461	0.07587	1.82831	-0.04762	0.08672	1.16593	0.13398	-0.08622	1.53040	-0.02384	-0.06105	1.71771	0.01782	-0.05803	1.14522	0.13584	-0.04605	0.86515	0.23604	-0.10787	1.33594	-0.02688 
997	8.300	-0.00762	1.51820	0.18412	-0.11580	1.36419	0.04379	-0.04066	1.71697	-0.08538	0.00843	1.30474	0.23084	-0.09463	1.46570	0.12840	0.04852	0.88539	0.20959	0.00342	1.16248	0.23872	0.01151	1.02725	0.25062	0.10670	1.48538	-0.03079	0.14850	1.32374	-0.02435	0.08838	1.46134	0.13604	0.06408	1.81429	0.05465	0.07587	1.82831	-0.04759	0.08665	1.16586	0.13391	-0.08624	1.53041	-0.02384	-0.06106	1.71771	0.01783	-0.05810	1.14522	0.13582	-0.04612	0.86514	0.23598	-0.10784	1.33591	-0.02691 
998	8.308	-0.00765	1.51820	0.18412	-0.11583	1.36421	0.04376	-0.04066	1.71698	-0.08537	0.00840	1.30473	0.23084	-0.09466	1.46570	0.12840	0.04845	0.88538	0.20953	0.00335	1.16246	0.23871	0.01144	1.02724	0.25058	0.10670	1.48539	-0.03078	0.14847	1.32374	-0.02436	0.08835	1.46133	0.13605	0.06407	1.81429	0.05469	0.07589	1.82831	-0.04755	0.08657	1.16578	0.13384	-0.08626	1.53043	-0.02385	-0.06107	1.71772	0.01784	-0.05817	1.14522	0.13580	-0.04619	0.86513	0.23592	-0.10788	1.33594	-0.02693 
999	8.317	-0.00768	1.51820	0.18412	-0.11587	1.36422	0.04374	-0.04065	1.71698	-0.08535	0.00835	1.30472	0.23083	-0.09470	1.46571	0.12839	0.04838	0.88538	0.20948	0.00327	1.16244	0.23870	0.01136	1.02723	0.25054	0.10669	1.48539	-0.03078	0.14844	1.32373	-0.02437	0.08833	1.46132	0.13606	0.06407	1.81428	0.05472	0.07591	1.82832	-0.04750	0.08650	1.16572	0.13378	-0.08627	1.53045	-0.02385	-0.06107	1.71772	0.01786	-0.05824	1.14522	0.13578	-0.04625	0.86511	0.23586	-0.10799	1.33603	-0.02696 
